# xmcd
#
# Track frame offsets:
#	182
#	14340
#	26952
#	41075
#	54595
#	68560
#	80672
#	95635
#	109970
#	123790
#	138525
#	151085
#	163782
#	178137
#	191320
#	204480
#	218257
#	231622
#	246590
#	261400
#	275207
#	288995
#	301405
#	314902
#
# Disc length: 4365 seconds
#
# Revision: 0
# Processed by: cddbd v1.5PL3 Copyright (c) Steve Scherf et al.
# Submitted via: dBpowerAMP V4.0
#
DISCID=72110b18
DTITLE=Washboard Sam - Get Down Brother
DYEAR=1900
DGENRE=Blues
TTITLE0=Play Your Vendor
TTITLE1=Flying Crow Blues
TTITLE2=Soap And Water Blues
TTITLE3=Laid My Cards
TTITLE4=I Just Can't Help It
TTITLE5=River Hip Mama
TTITLE6=You Can't Have None Of That
TTITLE7=Hit The Hiway
TTITLE8=You Can't Make The Grade
TTITLE9=Life Is Just A Book
TTITLE10=Rockin' My Blues Away
TTITLE11=My Feet Jumped Salty
TTITLE12=Lover's Lane Blues
TTITLE13=Evil Blues
TTITLE14=Do That Shake Dance
TTITLE15=Down South Woman Blues
TTITLE16=Good Old Cabbage Greens
TTITLE17=How Can You Love Me
TTITLE18=I've Been Treated Wrong
TTITLE19=She Belongs To The Devil
TTITLE20=I'm Feeling Lowdown
TTITLE21=Levee Camp Blues
TTITLE22=Red River Dam Blues
TTITLE23=Get Down Brother
EXTD=
EXTT0=
EXTT1=
EXTT2=
EXTT3=
EXTT4=
EXTT5=
EXTT6=
EXTT7=
EXTT8=
EXTT9=
EXTT10=
EXTT11=
EXTT12=
EXTT13=
EXTT14=
EXTT15=
EXTT16=
EXTT17=
EXTT18=
EXTT19=
EXTT20=
EXTT21=
EXTT22=
EXTT23=
PLAYORDER=
